<svg width="41" height="40" viewBox="0 0 41 40" fill="none" xmlns="http://www.w3.org/2000/svg">
<path d="M20.5 27.5C19.1727 27.498 17.8685 27.1608 16.7145 26.5212C15.5604 25.8815 14.5957 24.9613 13.9144 23.85L11.7234 25.1C12.6356 26.5751 13.9229 27.7953 15.4606 28.6423C16.9983 29.4893 18.7342 29.9344 20.5 29.9344C22.2658 29.9344 24.0017 29.4893 25.5394 28.6423C27.0771 27.7953 28.3644 26.5751 29.2766 25.1L27.0856 23.85C26.4043 24.9613 25.4396 25.8815 24.2855 26.5212C23.1315 27.1608 21.8273 27.498 20.5 27.5ZM38.4375 5H33.3125V0H30.75V5H25.625V7.5H30.75V12.5H33.3125V7.5H38.4375V5ZM14.7344 13.75C14.1009 13.75 13.4816 13.9333 12.9548 14.2767C12.4281 14.62 12.0175 15.1081 11.7751 15.6791C11.5326 16.2501 11.4692 16.8785 11.5928 17.4847C11.7164 18.0908 12.0215 18.6477 12.4694 19.0847C12.9174 19.5217 13.4881 19.8194 14.1095 19.94C14.7308 20.0605 15.3749 19.9986 15.9602 19.7621C16.5455 19.5256 17.0457 19.1251 17.3977 18.6112C17.7496 18.0973 17.9375 17.4931 17.9375 16.875C17.9409 16.4637 17.8604 16.0558 17.7006 15.6752C17.5409 15.2945 17.3051 14.9487 17.0069 14.6579C16.7088 14.367 16.3544 14.137 15.9642 13.9811C15.574 13.8252 15.156 13.7467 14.7344 13.75ZM26.2656 13.75C25.6321 13.75 25.0128 13.9333 24.4861 14.2767C23.9593 14.62 23.5488 15.1081 23.3063 15.6791C23.0639 16.2501 23.0005 16.8785 23.1241 17.4847C23.2476 18.0908 23.5527 18.6477 24.0007 19.0847C24.4486 19.5217 25.0194 19.8194 25.6407 19.94C26.2621 20.0605 26.9061 19.9986 27.4914 19.7621C28.0767 19.5256 28.577 19.1251 28.9289 18.6112C29.2809 18.0973 29.4688 17.4931 29.4688 16.875C29.4722 16.4637 29.3916 16.0558 29.2319 15.6752C29.0721 15.2945 28.8363 14.9487 28.5382 14.6579C28.2401 14.367 27.8856 14.137 27.4954 13.9811C27.1053 13.8252 26.6872 13.7467 26.2656 13.75Z" fill="#95A2B8"/>
<path d="M35.3754 16.25C35.6991 17.4753 35.8669 18.7347 35.875 20C35.875 22.9667 34.9733 25.8668 33.2839 28.3336C31.5945 30.8003 29.1932 32.7229 26.3838 33.8582C23.5744 34.9935 20.483 35.2906 17.5005 34.7118C14.5181 34.133 11.7785 32.7044 9.62827 30.6066C7.47804 28.5088 6.01371 25.8361 5.42047 22.9264C4.82722 20.0166 5.1317 17.0006 6.29539 14.2597C7.45909 11.5189 9.42974 9.17618 11.9581 7.52796C14.4866 5.87974 17.4592 5 20.5 5V2.5C16.7869 2.49876 13.165 3.62173 10.1338 5.71398C7.10265 7.80623 4.81171 10.7646 3.57706 14.181C2.34241 17.5974 2.22491 21.3035 3.24076 24.7878C4.25662 28.2721 6.35576 31.363 9.24858 33.634C12.1414 35.905 15.6853 37.2443 19.3914 37.4669C23.0975 37.6896 26.783 36.7847 29.9396 34.8771C33.0962 32.9695 35.5682 30.1532 37.0145 26.8169C38.4609 23.4805 38.8104 19.7884 38.0147 16.25H35.3754Z" fill="#95A2B8"/>
</svg>
