<svg width="40" height="40" viewBox="0 0 40 40" fill="none" xmlns="http://www.w3.org/2000/svg">
<path d="M20 27.5C18.7051 27.498 17.4327 27.1608 16.3068 26.5212C15.1809 25.8815 14.2397 24.9613 13.575 23.85L11.4375 25.1C12.3274 26.5751 13.5833 27.7953 15.0835 28.6423C16.5837 29.4893 18.2772 29.9344 20 29.9344C21.7228 29.9344 23.4163 29.4893 24.9165 28.6423C26.4167 27.7953 27.6726 26.5751 28.5625 25.1L26.425 23.85C25.7603 24.9613 24.8191 25.8815 23.6932 26.5212C22.5673 27.1608 21.2949 27.498 20 27.5ZM37.5 5H32.5V0H30V5H25V7.5H30V12.5H32.5V7.5H37.5V5ZM14.375 13.75C13.7569 13.75 13.1527 13.9333 12.6388 14.2767C12.1249 14.62 11.7244 15.1081 11.4879 15.6791C11.2514 16.2501 11.1895 16.8785 11.31 17.4847C11.4306 18.0908 11.7283 18.6477 12.1653 19.0847C12.6023 19.5217 13.1592 19.8194 13.7653 19.94C14.3715 20.0605 14.9999 19.9986 15.5709 19.7621C16.1419 19.5256 16.63 19.1251 16.9733 18.6112C17.3167 18.0973 17.5 17.4931 17.5 16.875C17.5033 16.4637 17.4248 16.0558 17.2689 15.6752C17.113 15.2945 16.883 14.9487 16.5921 14.6579C16.3013 14.367 15.9555 14.137 15.5748 13.9811C15.1942 13.8252 14.7863 13.7467 14.375 13.75ZM25.625 13.75C25.0069 13.75 24.4028 13.9333 23.8888 14.2767C23.3749 14.62 22.9744 15.1081 22.7379 15.6791C22.5014 16.2501 22.4395 16.8785 22.56 17.4847C22.6806 18.0908 22.9783 18.6477 23.4153 19.0847C23.8523 19.5217 24.4092 19.8194 25.0153 19.94C25.6215 20.0605 26.2499 19.9986 26.8209 19.7621C27.3919 19.5256 27.88 19.1251 28.2233 18.6112C28.5667 18.0973 28.75 17.4931 28.75 16.875C28.7533 16.4637 28.6748 16.0558 28.5189 15.6752C28.363 15.2945 28.133 14.9487 27.8421 14.6579C27.5513 14.367 27.2055 14.137 26.8248 13.9811C26.4442 13.8252 26.0363 13.7467 25.625 13.75Z" fill="#5765FE"/>
<path d="M34.5125 16.25C34.8283 17.4753 34.9921 18.7347 35 20C35 22.9667 34.1203 25.8668 32.4721 28.3336C30.8238 30.8003 28.4812 32.7229 25.7403 33.8582C22.9994 34.9935 19.9834 35.2906 17.0737 34.7118C14.1639 34.133 11.4912 32.7044 9.39341 30.6066C7.29562 28.5088 5.86701 25.8361 5.28823 22.9264C4.70946 20.0166 5.00651 17.0006 6.14182 14.2597C7.27713 11.5189 9.19972 9.17618 11.6665 7.52796C14.1332 5.87974 17.0333 5 20 5V2.5C16.3775 2.49876 12.8438 3.62173 9.88661 5.71398C6.92938 7.80623 4.69432 10.7646 3.48979 14.181C2.28525 17.5974 2.17062 21.3035 3.16169 24.7878C4.15277 28.2721 6.20072 31.363 9.02298 33.634C11.8452 35.905 15.3027 37.2443 18.9184 37.4669C22.5341 37.6896 26.1298 36.7847 29.2093 34.8771C32.2889 32.9695 34.7006 30.1532 36.1117 26.8169C37.5228 23.4805 37.8638 19.7884 37.0875 16.25H34.5125Z" fill="#5563FE"/>
</svg>
