<svg width="60" height="60" viewBox="0 0 60 60" fill="none" xmlns="http://www.w3.org/2000/svg">
<rect width="60" height="60" rx="30" fill="#5764FD" fill-opacity="0.8"/>
<path d="M7.17089 25.8708C7.12297 26.7271 7.60214 27.525 8.38131 27.8833L24.0146 35.0542L31.1855 50.6854C31.5271 51.4271 32.2688 51.9 33.0792 51.9L33.198 51.8958C33.6161 51.8724 34.0175 51.7235 34.3497 51.4686C34.6819 51.2136 34.9296 50.8645 35.0605 50.4667L46.7167 14.9833C46.9605 14.2375 46.7646 13.4146 46.2105 12.8583C45.6563 12.3021 44.8355 12.1125 44.0855 12.3521L8.60006 24.0104C8.2021 24.1404 7.8527 24.3875 7.59767 24.7195C7.34264 25.0515 7.19388 25.4528 7.17089 25.8708Z" fill="#1D1819"/>
</svg>
