<svg width="40" height="40" viewBox="0 0 40 40" fill="none" xmlns="http://www.w3.org/2000/svg">
<path d="M18 12V22H18.12L23.08 26.94L25.9 24.12L22 20.22V12H18Z" fill="#5563FE"/>
<path d="M20 2C16.8744 2.01004 13.8054 2.83377 11.0949 4.39012C8.38433 5.94647 6.12578 8.18179 4.54149 10.8761C2.95721 13.5704 2.1018 16.6308 2.05946 19.7561C2.01711 22.8813 2.78929 25.9638 4.3 28.7L1 32H12V21L7.24 25.76C5.99656 23.0054 5.6779 19.9224 6.33164 16.9717C6.98538 14.021 8.57641 11.3611 10.867 9.38943C13.1575 7.4178 16.0246 6.24032 19.0397 6.03298C22.0549 5.82564 25.0561 6.59957 27.595 8.2391C30.1339 9.87863 32.074 12.2957 33.1255 15.1292C34.177 17.9626 34.2834 21.0602 33.4287 23.9591C32.5741 26.858 30.8043 29.4025 28.3838 31.2123C25.9634 33.0221 23.0222 34 20 34V38C24.7739 38 29.3523 36.1036 32.7279 32.7279C36.1036 29.3523 38 24.7739 38 20C38 15.2261 36.1036 10.6477 32.7279 7.27208C29.3523 3.89642 24.7739 2 20 2Z" fill="#5563FE"/>
</svg>
