<svg width="40" height="40" viewBox="0 0 40 40" fill="none" xmlns="http://www.w3.org/2000/svg">
<path d="M38.734 36.204L36 28H33L34.666 36H5.33401L7.00001 28H4.00001L1.26401 36.204C0.570009 38.292 1.80001 40 4.00001 40H36C38.2 40 39.43 38.292 38.734 36.204ZM30 10C30 7.34784 28.9464 4.8043 27.0711 2.92893C25.1957 1.05357 22.6522 0 20 0C17.3478 0 14.8043 1.05357 12.9289 2.92893C11.0536 4.8043 10 7.34784 10 10C10 19.55 20 30 20 30C20 30 30 19.55 30 10ZM14.6 10.12C14.6 9.41096 14.7397 8.70886 15.0111 8.05381C15.2825 7.39877 15.6803 6.80361 16.1818 6.30233C16.6832 5.80105 17.2785 5.40348 17.9337 5.13232C18.5888 4.86117 19.291 4.72174 20 4.722C21.4319 4.722 22.8052 5.29082 23.8177 6.30333C24.8302 7.31584 25.399 8.6891 25.399 10.121C25.399 11.5529 24.8302 12.9262 23.8177 13.9387C22.8052 14.9512 21.4319 15.52 20 15.52C18.5678 15.52 17.1943 14.9511 16.1816 13.9384C15.1689 12.9257 14.6 11.5522 14.6 10.12Z" fill="#95A2B8"/>
</svg>
