<svg width="40" height="40" viewBox="0 0 40 40" fill="none" xmlns="http://www.w3.org/2000/svg">
<path d="M39.5469 36.204L36.6762 28H33.5262L35.2755 36H4.47694L6.22624 28H3.07625L0.203445 36.204C-0.525255 38.292 0.766245 40 3.07625 40H36.6762C38.9862 40 40.2777 38.292 39.5469 36.204ZM30.3762 10C30.3762 7.34784 29.27 4.8043 27.3009 2.92893C25.3317 1.05357 22.661 0 19.8762 0C17.0915 0 14.4208 1.05357 12.4516 2.92893C10.4825 4.8043 9.37624 7.34784 9.37624 10C9.37624 19.55 19.8762 30 19.8762 30C19.8762 30 30.3762 19.55 30.3762 10ZM14.2062 10.12C14.2062 9.41096 14.3529 8.70886 14.6379 8.05381C14.9229 7.39877 15.3405 6.80361 15.8671 6.30233C16.3936 5.80105 17.0187 5.40348 17.7066 5.13232C18.3945 4.86117 19.1318 4.72174 19.8762 4.722C21.3797 4.722 22.8217 5.29082 23.8848 6.30333C24.9479 7.31584 25.5452 8.6891 25.5452 10.121C25.5452 11.5529 24.9479 12.9262 23.8848 13.9387C22.8217 14.9512 21.3797 15.52 19.8762 15.52C18.3725 15.52 16.9303 14.9511 15.8669 13.9384C14.8036 12.9257 14.2062 11.5522 14.2062 10.12Z" fill="#5563FE"/>
</svg>
