<svg width="39" height="45" viewBox="0 0 39 45" fill="none" xmlns="http://www.w3.org/2000/svg">
<path d="M20 2C28.2928 2 34.9999 8.72939 35 17.0498C35 28.3355 20.0048 44.9946 20 45C19.9973 44.997 12.5012 36.6684 8.1084 27.7998H20C25.9173 27.7998 30.7139 22.9869 30.7139 17.0498C30.7138 11.1128 25.9173 6.2998 20 6.2998C14.0828 6.29983 9.28624 11.1129 9.28613 17.0498C9.28613 19.47 10.0835 21.7033 11.4287 23.5H6.27051C5.4816 21.2619 5 19.0699 5 17.0498C5.00011 8.72939 11.7072 2 20 2ZM20 10.5996C23.5503 10.5996 26.4286 13.4877 26.4287 17.0498C26.4287 20.612 23.5504 23.5 20 23.5C16.4496 23.5 13.5713 20.612 13.5713 17.0498C13.5714 13.4877 16.4497 10.5996 20 10.5996Z" fill="#5766FD"/>
</svg>
