<svg width="38" height="38" viewBox="0 0 38 38" fill="none" xmlns="http://www.w3.org/2000/svg">
<path fill-rule="evenodd" clip-rule="evenodd" d="M33.9286 19C33.9286 22.9593 32.3557 26.7564 29.5561 29.5561C26.7564 32.3557 22.9593 33.9286 19 33.9286C15.0407 33.9286 11.2436 32.3557 8.44391 29.5561C5.64426 26.7564 4.07143 22.9593 4.07143 19C4.07143 15.0407 5.64426 11.2436 8.44391 8.44391C11.2436 5.64426 15.0407 4.07143 19 4.07143C22.9593 4.07143 26.7564 5.64426 29.5561 8.44391C32.3557 11.2436 33.9286 15.0407 33.9286 19ZM38 19C38 24.0391 35.9982 28.8718 32.435 32.435C28.8718 35.9982 24.0391 38 19 38C13.9609 38 9.12816 35.9982 5.56497 32.435C2.00178 28.8718 0 24.0391 0 19C0 13.9609 2.00178 9.12816 5.56497 5.56497C9.12816 2.00178 13.9609 0 19 0C24.0391 0 28.8718 2.00178 32.435 5.56497C35.9982 9.12816 38 13.9609 38 19ZM24.4286 27.1429C24.9685 27.1429 25.4863 26.9284 25.868 26.5466C26.2498 26.1648 26.4643 25.647 26.4643 25.1071C26.4643 24.5672 26.2498 24.0494 25.868 23.6677C25.4863 23.2859 24.9685 23.0714 24.4286 23.0714H13.5714C13.0315 23.0714 12.5137 23.2859 12.132 23.6677C11.7502 24.0494 11.5357 24.5672 11.5357 25.1071C11.5357 25.647 11.7502 26.1648 12.132 26.5466C12.5137 26.9284 13.0315 27.1429 13.5714 27.1429H24.4286ZM24.4286 19C23.8887 19 23.3709 18.7855 22.9891 18.4038C22.6073 18.022 22.3929 17.5042 22.3929 16.9643V14.25C22.3929 13.7101 22.6073 13.1923 22.9891 12.8105C23.3709 12.4288 23.8887 12.2143 24.4286 12.2143C24.9685 12.2143 25.4863 12.4288 25.868 12.8105C26.2498 13.1923 26.4643 13.7101 26.4643 14.25V16.9643C26.4643 17.5042 26.2498 18.022 25.868 18.4038C25.4863 18.7855 24.9685 19 24.4286 19ZM11.5357 16.9643C11.5357 17.5042 11.7502 18.022 12.132 18.4038C12.5137 18.7855 13.0315 19 13.5714 19C14.1113 19 14.6291 18.7855 15.0109 18.4038C15.3927 18.022 15.6071 17.5042 15.6071 16.9643V14.25C15.6071 13.7101 15.3927 13.1923 15.0109 12.8105C14.6291 12.4288 14.1113 12.2143 13.5714 12.2143C13.0315 12.2143 12.5137 12.4288 12.132 12.8105C11.7502 13.1923 11.5357 13.7101 11.5357 14.25V16.9643Z" fill="#F2D51D"/>
</svg>
