<svg width="38" height="38" viewBox="0 0 38 38" fill="none" xmlns="http://www.w3.org/2000/svg">
<path fill-rule="evenodd" clip-rule="evenodd" d="M19 34C22.9782 34 26.7936 32.4196 29.6066 29.6066C32.4196 26.7936 34 22.9782 34 19C34 15.0218 32.4196 11.2064 29.6066 8.3934C26.7936 5.58035 22.9782 4 19 4C15.0218 4 11.2064 5.58035 8.3934 8.3934C5.58035 11.2064 4 15.0218 4 19C4 22.9782 5.58035 26.7936 8.3934 29.6066C11.2064 32.4196 15.0218 34 19 34ZM19 38C21.4951 38 23.9658 37.5085 26.271 36.5537C28.5762 35.5989 30.6707 34.1993 32.435 32.435C34.1993 30.6707 35.5989 28.5762 36.5537 26.271C37.5085 23.9658 38 21.4951 38 19C38 16.5049 37.5085 14.0342 36.5537 11.729C35.5989 9.42383 34.1993 7.32928 32.435 5.56497C30.6707 3.80066 28.5762 2.40113 26.271 1.44629C23.9658 0.491449 21.4951 -3.71801e-08 19 0C13.9609 7.50886e-08 9.12816 2.00178 5.56497 5.56497C2.00178 9.12816 0 13.9609 0 19C0 24.0391 2.00178 28.8718 5.56497 32.435C9.12816 35.9982 13.9609 38 19 38Z" fill="#FF6561"/>
<path d="M16 13.5C16 14.163 15.7366 14.7989 15.2678 15.2678C14.7989 15.7366 14.163 16 13.5 16C12.837 16 12.2011 15.7366 11.7322 15.2678C11.2634 14.7989 11 14.163 11 13.5C11 12.837 11.2634 12.2011 11.7322 11.7322C12.2011 11.2634 12.837 11 13.5 11C14.163 11 14.7989 11.2634 15.2678 11.7322C15.7366 12.2011 16 12.837 16 13.5ZM27 13.5C27 14.163 26.7366 14.7989 26.2678 15.2678C25.7989 15.7366 25.163 16 24.5 16C23.837 16 23.2011 15.7366 22.7322 15.2678C22.2634 14.7989 22 14.163 22 13.5C22 12.837 22.2634 12.2011 22.7322 11.7322C23.2011 11.2634 23.837 11 24.5 11C25.163 11 25.7989 11.2634 26.2678 11.7322C26.7366 12.2011 27 12.837 27 13.5Z" fill="#FF6766"/>
<path fill-rule="evenodd" clip-rule="evenodd" d="M23.442 28.254C23.7709 28.6623 24.2471 28.9252 24.7679 28.9859C25.2888 29.0466 25.8126 28.9003 26.2266 28.5786C26.6407 28.2568 26.9118 27.7853 26.9816 27.2656C27.0515 26.7459 26.9144 26.2196 26.6 25.8L26.596 25.796L26.592 25.79L26.586 25.78L26.566 25.758C26.5147 25.6929 26.4614 25.6296 26.406 25.568C26.2854 25.436 26.1578 25.3105 26.024 25.192C25.5979 24.8195 25.1293 24.4986 24.628 24.236C23.384 23.572 21.56 23 19 23C16.44 23 14.616 23.572 13.372 24.236C12.8707 24.4987 12.4021 24.8196 11.976 25.192C11.7804 25.3664 11.5985 25.5557 11.432 25.758L11.414 25.78L11.408 25.79L11.404 25.796H11.4C11.4 25.8 11.4 25.8 13 27L11.4 25.8C11.0855 26.2196 10.9485 26.7459 11.0183 27.2656C11.0881 27.7853 11.3593 28.2568 11.7733 28.5786C12.1874 28.9003 12.7112 29.0466 13.232 28.9859C13.7529 28.9252 14.229 28.6623 14.558 28.254C14.7671 28.0604 15.0012 27.8956 15.254 27.764C15.884 27.428 17.058 27 19 27C20.94 27 22.116 27.428 22.746 27.764C22.9988 27.8956 23.2328 28.0604 23.442 28.254Z" fill="#FF6A66"/>
</svg>
